<svg xmlns="http://www.w3.org/2000/svg" width="30" viewBox="0 0 30 30" height="30" version="1.0"><path d="M 12.628906 7.648438 C 12.628906 7.648438 10.222656 7.816406 8.652344 9.078125 C 8.644531 9.078125 8.636719 9.085938 8.628906 9.089844 C 8.355469 9.339844 8.152344 9.730469 7.898438 10.292969 C 7.644531 10.851562 7.375 11.574219 7.132812 12.378906 C 6.644531 13.992188 6.246094 15.976562 6.246094 17.839844 C 6.246094 17.90625 6.261719 17.972656 6.292969 18.027344 C 6.84375 18.996094 7.859375 19.582031 8.804688 19.953125 C 9.753906 20.320312 10.625 20.46875 11.070312 20.480469 C 11.195312 20.488281 11.316406 20.429688 11.390625 20.328125 L 12.308594 19.054688 C 13.050781 19.230469 13.921875 19.351562 14.925781 19.351562 C 15.933594 19.351562 16.804688 19.230469 17.546875 19.054688 L 18.464844 20.328125 C 18.539062 20.429688 18.660156 20.488281 18.785156 20.480469 C 19.226562 20.46875 20.101562 20.320312 21.046875 19.953125 C 21.996094 19.582031 23.007812 18.996094 23.5625 18.027344 C 23.59375 17.972656 23.609375 17.90625 23.609375 17.839844 C 23.609375 15.976562 23.210938 13.992188 22.722656 12.378906 C 22.480469 11.574219 22.210938 10.851562 21.957031 10.292969 C 21.703125 9.730469 21.5 9.339844 21.226562 9.089844 C 21.21875 9.085938 21.210938 9.078125 21.203125 9.078125 C 19.628906 7.816406 17.226562 7.648438 17.226562 7.648438 C 17.199219 7.648438 17.171875 7.648438 17.144531 7.648438 C 17.011719 7.667969 16.902344 7.753906 16.851562 7.875 C 16.851562 7.875 16.722656 8.15625 16.636719 8.558594 C 15.902344 8.441406 15.28125 8.40625 14.925781 8.40625 C 14.570312 8.40625 13.953125 8.441406 13.21875 8.558594 C 13.132812 8.15625 13.003906 7.875 13.003906 7.875 C 12.941406 7.726562 12.789062 7.636719 12.628906 7.648438 Z M 12.390625 8.464844 C 12.417969 8.539062 12.4375 8.613281 12.460938 8.699219 C 11.613281 8.898438 10.679688 9.21875 9.808594 9.761719 C 9.671875 9.820312 9.582031 9.953125 9.578125 10.101562 C 9.574219 10.246094 9.660156 10.386719 9.789062 10.449219 C 9.925781 10.511719 10.085938 10.492188 10.199219 10.398438 C 11.945312 9.316406 14.171875 9.160156 14.925781 9.160156 C 15.683594 9.160156 17.910156 9.316406 19.65625 10.398438 C 19.769531 10.492188 19.929688 10.511719 20.0625 10.449219 C 20.195312 10.386719 20.28125 10.246094 20.277344 10.101562 C 20.273438 9.953125 20.183594 9.820312 20.046875 9.761719 C 19.175781 9.21875 18.242188 8.898438 17.390625 8.699219 C 17.417969 8.613281 17.433594 8.539062 17.464844 8.464844 C 17.894531 8.515625 19.566406 8.742188 20.707031 9.644531 C 20.78125 9.710938 21.035156 10.089844 21.273438 10.609375 C 21.507812 11.132812 21.757812 11.8125 21.992188 12.59375 C 22.453125 14.113281 22.824219 15.988281 22.839844 17.710938 C 22.414062 18.40625 21.609375 18.921875 20.777344 19.242188 C 20.023438 19.539062 19.316406 19.667969 18.949219 19.703125 L 18.3125 18.84375 C 18.636719 18.738281 18.929688 18.625 19.183594 18.511719 C 20.136719 18.09375 20.648438 17.652344 20.648438 17.652344 C 20.804688 17.511719 20.816406 17.269531 20.675781 17.113281 C 20.535156 16.957031 20.296875 16.945312 20.140625 17.085938 C 20.140625 17.085938 19.746094 17.445312 18.878906 17.828125 C 18.558594 17.96875 18.171875 18.105469 17.734375 18.230469 C 17.632812 18.21875 17.53125 18.246094 17.453125 18.3125 C 16.75 18.484375 15.914062 18.59375 14.925781 18.59375 C 13.933594 18.59375 13.097656 18.472656 12.390625 18.300781 C 12.3125 18.246094 12.214844 18.226562 12.121094 18.242188 C 11.679688 18.117188 11.296875 17.96875 10.976562 17.828125 C 10.109375 17.445312 9.714844 17.085938 9.714844 17.085938 C 9.628906 17.007812 9.511719 16.972656 9.394531 16.992188 C 9.25 17.011719 9.128906 17.117188 9.089844 17.261719 C 9.046875 17.402344 9.09375 17.554688 9.207031 17.652344 C 9.207031 17.652344 9.71875 18.09375 10.667969 18.511719 C 10.925781 18.625 11.21875 18.738281 11.542969 18.84375 L 10.90625 19.703125 C 10.535156 19.667969 9.832031 19.539062 9.078125 19.242188 C 8.246094 18.921875 7.441406 18.40625 7.011719 17.710938 C 7.03125 15.988281 7.402344 14.113281 7.863281 12.59375 C 8.097656 11.8125 8.347656 11.132812 8.582031 10.609375 C 8.816406 10.089844 9.074219 9.710938 9.148438 9.644531 C 10.289062 8.742188 11.960938 8.515625 12.390625 8.464844 Z M 12.472656 12.933594 C 11.511719 12.933594 10.777344 13.808594 10.777344 14.820312 C 10.777344 15.832031 11.511719 16.707031 12.472656 16.707031 C 13.4375 16.707031 14.171875 15.832031 14.171875 14.820312 C 14.171875 13.808594 13.4375 12.933594 12.472656 12.933594 Z M 17.378906 12.933594 C 16.417969 12.933594 15.683594 13.808594 15.683594 14.820312 C 15.683594 15.832031 16.417969 16.707031 17.378906 16.707031 C 18.34375 16.707031 19.078125 15.832031 19.078125 14.820312 C 19.078125 13.808594 18.34375 12.933594 17.378906 12.933594 Z M 12.472656 13.6875 C 12.972656 13.6875 13.417969 14.167969 13.417969 14.820312 C 13.417969 15.476562 12.972656 15.953125 12.472656 15.953125 C 11.976562 15.953125 11.53125 15.476562 11.53125 14.820312 C 11.53125 14.167969 11.976562 13.6875 12.472656 13.6875 Z M 17.378906 13.6875 C 17.878906 13.6875 18.324219 14.167969 18.324219 14.820312 C 18.324219 15.476562 17.878906 15.953125 17.378906 15.953125 C 16.882812 15.953125 16.4375 15.476562 16.4375 14.820312 C 16.4375 14.167969 16.882812 13.6875 17.378906 13.6875 Z M 17.378906 13.6875"/></svg>