<svg xmlns="http://www.w3.org/2000/svg" width="30" viewBox="0 0 30 30" height="30" version="1.0"><defs><clipPath id="a"><path d="M 12.351562 12 L 17.429688 12 L 17.429688 16.949219 L 12.351562 16.949219 Z M 12.351562 12"/></clipPath></defs><g clip-path="url(#a)"><path d="M 14.273438 12.578125 C 14.273438 12.578125 13.625 12.621094 13.203125 12.960938 C 13.199219 12.964844 13.199219 12.964844 13.195312 12.964844 C 13.121094 13.035156 13.066406 13.140625 13 13.289062 C 12.929688 13.441406 12.859375 13.632812 12.792969 13.851562 C 12.660156 14.285156 12.554688 14.820312 12.554688 15.320312 C 12.554688 15.339844 12.558594 15.355469 12.566406 15.371094 C 12.714844 15.632812 12.988281 15.789062 13.242188 15.890625 C 13.496094 15.988281 13.734375 16.027344 13.851562 16.03125 C 13.886719 16.035156 13.917969 16.019531 13.9375 15.992188 L 14.1875 15.648438 C 14.386719 15.695312 14.621094 15.726562 14.890625 15.726562 C 15.164062 15.726562 15.394531 15.695312 15.597656 15.648438 L 15.84375 15.992188 C 15.863281 16.019531 15.894531 16.035156 15.929688 16.03125 C 16.050781 16.027344 16.285156 15.988281 16.539062 15.890625 C 16.792969 15.789062 17.066406 15.632812 17.214844 15.371094 C 17.222656 15.355469 17.230469 15.339844 17.226562 15.320312 C 17.226562 14.820312 17.121094 14.285156 16.988281 13.851562 C 16.925781 13.632812 16.851562 13.441406 16.785156 13.289062 C 16.714844 13.140625 16.660156 13.035156 16.585938 12.964844 C 16.585938 12.964844 16.582031 12.964844 16.582031 12.960938 C 16.15625 12.621094 15.511719 12.578125 15.511719 12.578125 C 15.503906 12.578125 15.496094 12.578125 15.488281 12.578125 C 15.453125 12.582031 15.421875 12.605469 15.410156 12.636719 C 15.410156 12.636719 15.375 12.714844 15.351562 12.824219 C 15.152344 12.789062 14.988281 12.78125 14.890625 12.78125 C 14.796875 12.78125 14.628906 12.789062 14.429688 12.824219 C 14.40625 12.714844 14.375 12.636719 14.375 12.636719 C 14.355469 12.597656 14.316406 12.574219 14.273438 12.578125 Z M 14.207031 12.796875 C 14.214844 12.816406 14.222656 12.835938 14.226562 12.859375 C 14 12.914062 13.746094 13 13.511719 13.148438 C 13.476562 13.160156 13.453125 13.199219 13.449219 13.238281 C 13.449219 13.277344 13.472656 13.316406 13.507812 13.332031 C 13.542969 13.347656 13.585938 13.34375 13.617188 13.316406 C 14.089844 13.027344 14.6875 12.984375 14.890625 12.984375 C 15.09375 12.984375 15.695312 13.027344 16.164062 13.316406 C 16.195312 13.34375 16.238281 13.347656 16.273438 13.332031 C 16.308594 13.316406 16.332031 13.277344 16.332031 13.238281 C 16.332031 13.199219 16.304688 13.160156 16.269531 13.148438 C 16.035156 13 15.785156 12.914062 15.554688 12.859375 C 15.5625 12.835938 15.566406 12.816406 15.574219 12.796875 C 15.691406 12.8125 16.140625 12.871094 16.445312 13.113281 C 16.46875 13.132812 16.535156 13.234375 16.597656 13.375 C 16.664062 13.515625 16.730469 13.699219 16.792969 13.910156 C 16.917969 14.316406 17.015625 14.824219 17.023438 15.285156 C 16.90625 15.472656 16.691406 15.613281 16.464844 15.699219 C 16.261719 15.777344 16.074219 15.8125 15.972656 15.824219 L 15.800781 15.589844 C 15.890625 15.5625 15.96875 15.53125 16.039062 15.503906 C 16.292969 15.390625 16.429688 15.269531 16.429688 15.269531 C 16.472656 15.234375 16.476562 15.167969 16.4375 15.125 C 16.402344 15.085938 16.335938 15.082031 16.292969 15.117188 C 16.292969 15.117188 16.1875 15.214844 15.953125 15.320312 C 15.871094 15.355469 15.765625 15.394531 15.648438 15.425781 C 15.621094 15.421875 15.59375 15.429688 15.570312 15.449219 C 15.382812 15.496094 15.15625 15.523438 14.890625 15.523438 C 14.625 15.523438 14.398438 15.492188 14.207031 15.445312 C 14.1875 15.429688 14.160156 15.425781 14.136719 15.429688 C 14.015625 15.398438 13.914062 15.355469 13.828125 15.320312 C 13.59375 15.214844 13.488281 15.117188 13.488281 15.117188 C 13.464844 15.097656 13.433594 15.089844 13.402344 15.09375 C 13.363281 15.097656 13.328125 15.128906 13.320312 15.164062 C 13.308594 15.203125 13.320312 15.246094 13.351562 15.269531 C 13.351562 15.269531 13.488281 15.390625 13.746094 15.503906 C 13.8125 15.53125 13.890625 15.5625 13.980469 15.589844 L 13.808594 15.824219 C 13.710938 15.8125 13.519531 15.777344 13.316406 15.699219 C 13.09375 15.613281 12.875 15.472656 12.761719 15.285156 C 12.765625 14.824219 12.863281 14.316406 12.988281 13.910156 C 13.050781 13.699219 13.121094 13.515625 13.183594 13.375 C 13.246094 13.234375 13.316406 13.132812 13.335938 13.113281 C 13.640625 12.871094 14.09375 12.8125 14.207031 12.796875 Z M 14.230469 14 C 13.972656 14 13.773438 14.234375 13.773438 14.507812 C 13.773438 14.78125 13.972656 15.015625 14.230469 15.015625 C 14.488281 15.015625 14.6875 14.78125 14.6875 14.507812 C 14.6875 14.234375 14.488281 14 14.230469 14 Z M 15.550781 14 C 15.292969 14 15.09375 14.234375 15.09375 14.507812 C 15.09375 14.78125 15.292969 15.015625 15.550781 15.015625 C 15.8125 15.015625 16.007812 14.78125 16.007812 14.507812 C 16.007812 14.234375 15.8125 14 15.550781 14 Z M 14.230469 14.203125 C 14.363281 14.203125 14.484375 14.332031 14.484375 14.507812 C 14.484375 14.683594 14.363281 14.8125 14.230469 14.8125 C 14.097656 14.8125 13.976562 14.683594 13.976562 14.507812 C 13.976562 14.332031 14.097656 14.203125 14.230469 14.203125 Z M 15.550781 14.203125 C 15.683594 14.203125 15.804688 14.332031 15.804688 14.507812 C 15.804688 14.683594 15.683594 14.8125 15.550781 14.8125 C 15.417969 14.8125 15.296875 14.683594 15.296875 14.507812 C 15.296875 14.332031 15.417969 14.203125 15.550781 14.203125 Z M 15.550781 14.203125"/></g></svg>